<svg width="796" height="958" viewBox="0 0 796 958" fill="none" xmlns="http://www.w3.org/2000/svg">
<path d="M398 774.029C295.12 774.029 279.43 795.132 278.07 797.339C277.99 797.469 277.962 797.604 277.973 797.756C277.998 798.093 278.073 798.645 278.254 799.23C278.466 799.916 322.124 921.593 329.884 943.221C330.654 945.367 332.112 947.125 334.201 948.036C341.293 951.13 360.924 957.786 398.577 957.786C435.318 957.786 454.771 951.14 461.842 948.043C463.935 947.126 465.414 945.316 466.185 943.164L517.746 799.23C517.953 798.694 518.013 798.055 518.03 797.733C518.037 797.596 518.015 797.478 517.943 797.361C516.674 795.273 501.221 774.029 398 774.029Z" fill="url(#paint0_linear_92_31)"/>
<ellipse cx="398" cy="797.538" rx="120.037" ry="23.5088" fill="url(#paint1_linear_92_31)"/>
<path d="M398 587.481C240.029 587.481 214.848 608.243 212.395 610.734C212.242 610.89 212.172 611.096 212.203 611.312C212.251 611.652 212.371 612.154 212.624 612.683C212.947 613.357 254.968 731.085 263.692 755.529C264.705 758.368 266.891 760.512 269.768 761.41C284.725 766.077 335.437 780.276 398.893 780.276C460.851 780.276 511.315 766.08 526.236 761.411C529.11 760.512 531.321 758.295 532.335 755.46L583.343 612.775C583.365 612.714 583.393 612.655 583.425 612.598C583.68 612.129 583.773 611.601 583.807 611.279C583.827 611.084 583.771 610.905 583.635 610.764C581.359 608.416 556.625 587.481 398 587.481Z" fill="url(#paint2_linear_92_31)"/>
<ellipse cx="398" cy="610.99" rx="185.826" ry="23.5088" fill="url(#paint3_linear_92_31)"/>
<path d="M398 394.631C181.766 394.631 146.787 415.277 143.254 417.863C143.035 418.023 142.919 418.283 142.98 418.548C143.056 418.884 143.221 419.347 143.54 419.833C143.98 420.503 185.753 536.884 194.855 562.248C195.962 565.335 198.434 567.584 201.617 568.372C222.926 573.65 308.881 593.451 399.226 593.451C487.449 593.451 573.125 573.649 594.391 568.371C597.569 567.583 600.069 565.255 601.179 562.175L652.402 419.995C652.44 419.888 652.499 419.789 652.565 419.696C652.86 419.277 652.986 418.82 653.039 418.508C653.08 418.267 652.986 418.041 652.79 417.895C649.511 415.455 615.167 394.631 398 394.631Z" fill="url(#paint4_linear_92_31)"/>
<ellipse cx="398" cy="418.14" rx="255.078" ry="23.5088" fill="url(#paint5_linear_92_31)"/>
<path d="M398 198C121.071 198 76.3009 218.65 71.7851 221.232C71.5123 221.388 71.36 221.685 71.4562 221.985C71.562 222.314 71.771 222.748 72.1527 223.201C72.7138 223.869 113.872 339.179 123.177 365.259C124.347 368.539 127.028 370.877 130.444 371.552C157.805 376.954 284.233 400.585 402.456 400.585C517.683 400.585 639.029 377.042 665.622 371.582C668.996 370.889 671.675 368.492 672.839 365.249L723.767 223.425C723.819 223.278 723.909 223.148 724.011 223.03C724.344 222.649 724.5 222.24 724.573 221.94C724.64 221.665 724.516 221.407 724.271 221.265C720.086 218.831 676.139 198 398 198Z" fill="url(#paint6_linear_92_31)"/>
<ellipse cx="398" cy="221.509" rx="326.638" ry="23.5088" fill="url(#paint7_linear_92_31)"/>
<path d="M398 0.108398C60.8413 0.108398 6.78614 20.8248 1.44448 23.3531C1.13139 23.5013 0.957465 23.8224 1.09054 24.1422C1.22467 24.4646 1.47605 24.8782 1.9173 25.3098C2.59693 25.9746 43.6864 140.459 53.2358 167.083C54.4647 170.509 57.3324 172.913 60.9298 173.468C93.3852 178.474 257.93 202.693 403.416 202.693C545.262 202.693 703.547 178.547 735.14 173.491C738.701 172.921 741.556 170.471 742.783 167.08L793.985 25.58C794.049 25.4035 794.165 25.2516 794.3 25.1216C794.672 24.7648 794.858 24.3857 794.951 24.0958C795.046 23.7989 794.901 23.5192 794.62 23.3841C789.664 20.9995 736.578 0.108398 398 0.108398Z" fill="url(#paint8_linear_92_31)"/>
<ellipse cx="398" cy="23.6172" rx="397.044" ry="23.5088" fill="url(#paint9_linear_92_31)"/>
<defs>
<linearGradient id="paint0_linear_92_31" x1="518.037" y1="865.773" x2="277.964" y2="865.773" gradientUnits="userSpaceOnUse">
<stop stop-color="#963B02"/>
<stop offset="0.5" stop-color="#DD5500"/>
<stop offset="1" stop-color="#963B02"/>
</linearGradient>
<linearGradient id="paint1_linear_92_31" x1="277.964" y1="798.128" x2="507.314" y2="814.549" gradientUnits="userSpaceOnUse">
<stop offset="0.269438" stop-color="#963B02"/>
<stop offset="1" stop-color="#DD5500"/>
</linearGradient>
<linearGradient id="paint2_linear_92_31" x1="583.826" y1="679.36" x2="212.174" y2="679.36" gradientUnits="userSpaceOnUse">
<stop stop-color="#996401"/>
<stop offset="0.5" stop-color="#E19301"/>
<stop offset="1" stop-color="#996401"/>
</linearGradient>
<linearGradient id="paint3_linear_92_31" x1="212.174" y1="611.581" x2="564.715" y2="650.656" gradientUnits="userSpaceOnUse">
<stop offset="0.269438" stop-color="#996401"/>
<stop offset="1" stop-color="#FFD689"/>
</linearGradient>
<linearGradient id="paint4_linear_92_31" x1="653.078" y1="486.51" x2="142.922" y2="486.51" gradientUnits="userSpaceOnUse">
<stop stop-color="#839402"/>
<stop offset="0.5" stop-color="#C3DD00"/>
<stop offset="1" stop-color="#839402"/>
</linearGradient>
<linearGradient id="paint5_linear_92_31" x1="142.922" y1="418.731" x2="621.707" y2="491.576" gradientUnits="userSpaceOnUse">
<stop offset="0.269438" stop-color="#839402"/>
<stop offset="1" stop-color="#C2DB01"/>
</linearGradient>
<linearGradient id="paint6_linear_92_31" x1="724.638" y1="289.879" x2="71.3618" y2="289.879" gradientUnits="userSpaceOnUse">
<stop stop-color="#03A63A"/>
<stop offset="0.5" stop-color="#00DD4B"/>
<stop offset="1" stop-color="#03A63A"/>
</linearGradient>
<linearGradient id="paint7_linear_92_31" x1="71.3618" y1="222.099" x2="675.719" y2="339.846" gradientUnits="userSpaceOnUse">
<stop offset="0.269438" stop-color="#03A63A"/>
<stop offset="1" stop-color="#00DD4B"/>
</linearGradient>
<linearGradient id="paint8_linear_92_31" x1="795.044" y1="91.987" x2="0.955933" y2="91.987" gradientUnits="userSpaceOnUse">
<stop stop-color="#008646"/>
<stop offset="0.5" stop-color="#00FF85"/>
<stop offset="1" stop-color="#008646"/>
</linearGradient>
<linearGradient id="paint9_linear_92_31" x1="0.955933" y1="24.2077" x2="722.971" y2="195.199" gradientUnits="userSpaceOnUse">
<stop offset="0.269438" stop-color="#008646"/>
<stop offset="1" stop-color="#00FF85"/>
</linearGradient>
</defs>
</svg>
