<svg width="792" height="212" viewBox="0 0 792 212" fill="none" xmlns="http://www.w3.org/2000/svg">
<path d="M254.136 61.4545L282.906 148.466H284.039L312.755 61.4545H334.778L295.807 172H271.085L232.167 61.4545H254.136ZM368.673 173.619C360.361 173.619 353.182 171.892 347.136 168.438C341.127 164.947 336.503 160.017 333.264 153.648C330.025 147.242 328.406 139.704 328.406 131.031C328.406 122.503 330.025 115.018 333.264 108.577C336.539 102.099 341.109 97.0615 346.974 93.4631C352.84 89.8286 359.731 88.0114 367.648 88.0114C372.757 88.0114 377.579 88.839 382.113 90.4943C386.684 92.1136 390.714 94.6326 394.204 98.0511C397.731 101.47 400.502 105.824 402.517 111.114C404.532 116.367 405.54 122.629 405.54 129.898V135.889H337.582V122.719H386.809C386.774 118.976 385.964 115.648 384.381 112.733C382.797 109.782 380.584 107.461 377.741 105.77C374.934 104.079 371.66 103.233 367.917 103.233C363.923 103.233 360.415 104.205 357.392 106.148C354.369 108.055 352.012 110.574 350.321 113.705C348.666 116.799 347.82 120.2 347.784 123.906V135.403C347.784 140.225 348.666 144.364 350.429 147.818C352.192 151.237 354.657 153.864 357.824 155.699C360.99 157.498 364.697 158.398 368.943 158.398C371.786 158.398 374.359 158.002 376.662 157.21C378.965 156.383 380.962 155.177 382.653 153.594C384.345 152.01 385.622 150.049 386.486 147.71L404.73 149.761C403.578 154.583 401.383 158.794 398.145 162.392C394.942 165.955 390.84 168.725 385.838 170.705C380.836 172.648 375.114 173.619 368.673 173.619ZM414.47 172V89.0909H433.416V102.909H434.28C435.791 98.1231 438.382 94.4347 442.053 91.8438C445.759 89.2169 449.987 87.9034 454.737 87.9034C455.817 87.9034 457.022 87.9574 458.354 88.0653C459.721 88.1373 460.855 88.2633 461.754 88.4432V106.418C460.927 106.13 459.613 105.878 457.814 105.662C456.051 105.41 454.341 105.284 452.686 105.284C449.124 105.284 445.921 106.058 443.078 107.605C440.271 109.116 438.058 111.222 436.439 113.92C434.82 116.619 434.01 119.732 434.01 123.259V172H414.47ZM494.489 173.457C487.975 173.457 482.146 171.784 477 168.438C471.854 165.091 467.788 160.233 464.801 153.864C461.815 147.494 460.321 139.758 460.321 130.653C460.321 121.441 461.832 113.669 464.855 107.335C467.914 100.966 472.034 96.1619 477.216 92.9233C482.398 89.6487 488.173 88.0114 494.543 88.0114C499.401 88.0114 503.395 88.839 506.526 90.4943C509.656 92.1136 512.139 94.0748 513.975 96.3778C515.81 98.6449 517.231 100.786 518.239 102.801H519.048V61.4545H538.642V172H519.426V158.938H518.239C517.231 160.953 515.774 163.094 513.867 165.361C511.959 167.592 509.44 169.499 506.31 171.082C503.179 172.666 499.239 173.457 494.489 173.457ZM499.94 157.426C504.079 157.426 507.605 156.311 510.52 154.08C513.435 151.812 515.648 148.664 517.159 144.634C518.671 140.603 519.426 135.907 519.426 130.545C519.426 125.184 518.671 120.524 517.159 116.565C515.684 112.607 513.489 109.53 510.574 107.335C507.695 105.14 504.151 104.043 499.94 104.043C495.586 104.043 491.952 105.176 489.037 107.443C486.122 109.71 483.927 112.841 482.452 116.835C480.976 120.83 480.239 125.4 480.239 130.545C480.239 135.727 480.976 140.351 482.452 144.418C483.963 148.448 486.176 151.633 489.091 153.972C492.042 156.275 495.658 157.426 499.94 157.426ZM575.722 173.673C570.468 173.673 565.736 172.738 561.526 170.866C557.352 168.959 554.041 166.152 551.594 162.446C549.183 158.74 547.978 154.17 547.978 148.736C547.978 144.058 548.841 140.189 550.568 137.131C552.296 134.072 554.653 131.625 557.639 129.79C560.626 127.955 563.991 126.569 567.733 125.634C571.512 124.662 575.416 123.96 579.446 123.528C584.304 123.025 588.245 122.575 591.267 122.179C594.29 121.747 596.485 121.099 597.853 120.236C599.256 119.336 599.958 117.951 599.958 116.08V115.756C599.958 111.689 598.752 108.541 596.341 106.31C593.93 104.079 590.458 102.963 585.924 102.963C581.138 102.963 577.341 104.007 574.534 106.094C571.764 108.181 569.892 110.646 568.921 113.489L550.676 110.898C552.116 105.86 554.491 101.65 557.801 98.267C561.112 94.8485 565.16 92.2936 569.946 90.6023C574.732 88.875 580.022 88.0114 585.816 88.0114C589.81 88.0114 593.786 88.4792 597.745 89.4148C601.703 90.3504 605.319 91.8977 608.594 94.0568C611.869 96.1799 614.496 99.0767 616.475 102.747C618.49 106.418 619.497 111.006 619.497 116.511V172H600.713V160.611H600.066C598.878 162.914 597.205 165.073 595.046 167.088C592.923 169.067 590.242 170.669 587.003 171.892C583.8 173.08 580.04 173.673 575.722 173.673ZM580.796 159.315C584.718 159.315 588.119 158.542 590.997 156.994C593.876 155.411 596.089 153.324 597.637 150.733C599.22 148.142 600.012 145.317 600.012 142.259V132.489C599.4 132.992 598.356 133.46 596.881 133.892C595.442 134.324 593.822 134.702 592.023 135.026C590.224 135.349 588.442 135.637 586.679 135.889C584.916 136.141 583.387 136.357 582.091 136.537C579.176 136.933 576.567 137.58 574.264 138.48C571.961 139.38 570.144 140.639 568.813 142.259C567.481 143.842 566.816 145.893 566.816 148.412C566.816 152.01 568.129 154.727 570.756 156.562C573.383 158.398 576.729 159.315 580.796 159.315ZM697.074 111.006L679.261 112.949C678.757 111.15 677.876 109.458 676.616 107.875C675.393 106.292 673.737 105.014 671.65 104.043C669.563 103.071 667.008 102.585 663.985 102.585C659.919 102.585 656.501 103.467 653.73 105.23C650.995 106.993 649.646 109.278 649.682 112.085C649.646 114.496 650.527 116.457 652.326 117.969C654.162 119.48 657.184 120.722 661.395 121.693L675.537 124.716C683.381 126.407 689.211 129.088 693.025 132.759C696.876 136.429 698.819 141.233 698.855 147.17C698.819 152.388 697.289 156.994 694.267 160.989C691.28 164.947 687.124 168.042 681.798 170.273C676.472 172.504 670.355 173.619 663.446 173.619C653.298 173.619 645.129 171.496 638.94 167.25C632.751 162.968 629.062 157.012 627.875 149.384L646.929 147.548C647.792 151.291 649.628 154.116 652.434 156.023C655.241 157.93 658.894 158.884 663.392 158.884C668.034 158.884 671.758 157.93 674.565 156.023C677.408 154.116 678.829 151.759 678.829 148.952C678.829 146.577 677.912 144.616 676.076 143.068C674.277 141.521 671.47 140.333 667.656 139.506L653.514 136.537C645.561 134.882 639.678 132.093 635.863 128.17C632.049 124.212 630.16 119.21 630.196 113.165C630.16 108.055 631.545 103.629 634.352 99.8864C637.195 96.108 641.135 93.1932 646.173 91.142C651.247 89.0549 657.094 88.0114 663.716 88.0114C673.432 88.0114 681.078 90.0805 686.656 94.2188C692.27 98.357 695.742 103.953 697.074 111.006ZM726.907 123.42V172H707.367V61.4545H726.475V103.179H727.447C729.39 98.5009 732.394 94.8125 736.461 92.1136C740.563 89.3788 745.781 88.0114 752.114 88.0114C757.872 88.0114 762.892 89.2169 767.174 91.6278C771.456 94.0388 774.767 97.5653 777.106 102.207C779.481 106.849 780.668 112.517 780.668 119.21V172H761.128V122.233C761.128 116.655 759.689 112.319 756.81 109.224C753.967 106.094 749.973 104.528 744.827 104.528C741.373 104.528 738.278 105.284 735.543 106.795C732.844 108.271 730.721 110.412 729.174 113.219C727.662 116.026 726.907 119.426 726.907 123.42Z" fill="white"/>
<path d="M64.4429 190L3.44288 68.5C-2.79251 57.7 0.844801 55.3333 3.44288 55.5H39.9429C47.1429 55.5 50.9429 62.5 51.9429 66C66.4429 96.6666 96.1429 159.4 98.9429 165C101.743 170.6 105.11 168.667 106.443 167C128.943 147.5 176.143 106.5 184.943 98.5C193.743 90.5 193.61 98.1666 192.443 103C178.086 131 147.985 189.4 142.443 199C136.9 208.6 128.133 211.667 124.443 212H88.9429C75.3429 212 66.9429 197.333 64.4429 190Z" fill="url(#paint0_linear_6_17)"/>
<path d="M139.443 5C139.443 2.23857 141.681 0 144.443 0H187.443C190.204 0 192.443 2.23858 192.443 5V71.644C192.443 73.0722 191.832 74.4322 190.765 75.3811L147.765 113.603C144.54 116.469 139.443 114.18 139.443 109.866V5Z" fill="url(#paint1_linear_6_17)"/>
<path d="M82.4429 51C82.4429 48.2386 84.6814 46 87.4429 46H121.443C124.204 46 126.443 48.2386 126.443 51V128.763C126.443 130.186 125.836 131.542 124.775 132.491L107.94 147.534C105.447 149.762 101.511 148.962 100.086 145.937L82.92 109.512C82.6058 108.846 82.4429 108.118 82.4429 107.381V51Z" fill="url(#paint2_linear_6_17)"/>
<defs>
<linearGradient id="paint0_linear_6_17" x1="0" y1="133.746" x2="193.007" y2="133.746" gradientUnits="userSpaceOnUse">
<stop stop-color="#1042F6"/>
<stop offset="1" stop-color="#00FFB0"/>
</linearGradient>
<linearGradient id="paint1_linear_6_17" x1="139.443" y1="0" x2="165.943" y2="121" gradientUnits="userSpaceOnUse">
<stop offset="0.331731" stop-color="#FF3871"/>
<stop offset="1" stop-color="#FF6F1B"/>
</linearGradient>
<linearGradient id="paint2_linear_6_17" x1="82.4429" y1="46" x2="104.443" y2="152" gradientUnits="userSpaceOnUse">
<stop offset="0.456731" stop-color="#FF3871"/>
<stop offset="1" stop-color="#FF6F1B"/>
</linearGradient>
</defs>
</svg>
